<svg width="1200" height="720" viewBox="0 0 1200 720" fill="none" xmlns="http://www.w3.org/2000/svg">
  <defs><linearGradient id="grass" x1="0" x2="1"><stop stop-color="#173A1C"/><stop offset="1" stop-color="#245C27"/></linearGradient></defs>
  <rect width="1200" height="720" rx="30" fill="url(#grass)"/>
  <g opacity=".22">
    <rect x="0" y="0" width="100" height="720" fill="#fff"/><rect x="200" y="0" width="100" height="720" fill="#fff"/><rect x="400" y="0" width="100" height="720" fill="#fff"/><rect x="600" y="0" width="100" height="720" fill="#fff"/><rect x="800" y="0" width="100" height="720" fill="#fff"/><rect x="1000" y="0" width="100" height="720" fill="#fff"/>
  </g>
  <rect x="44" y="44" width="1112" height="632" rx="18" stroke="#EFFFFF" stroke-opacity=".72" stroke-width="5"/>
  <path d="M600 44V676" stroke="#EFFFFF" stroke-opacity=".72" stroke-width="5"/>
  <circle cx="600" cy="360" r="105" stroke="#EFFFFF" stroke-opacity=".72" stroke-width="5"/>
  <circle cx="600" cy="360" r="8" fill="#EFFFFF" fill-opacity=".72"/>
  <rect x="44" y="210" width="160" height="300" stroke="#EFFFFF" stroke-opacity=".72" stroke-width="5"/>
  <rect x="996" y="210" width="160" height="300" stroke="#EFFFFF" stroke-opacity=".72" stroke-width="5"/>
  <rect x="44" y="285" width="76" height="150" stroke="#EFFFFF" stroke-opacity=".72" stroke-width="5"/>
  <rect x="1080" y="285" width="76" height="150" stroke="#EFFFFF" stroke-opacity=".72" stroke-width="5"/>
</svg>
