<svg width="420" height="220" viewBox="0 0 420 220" fill="none" xmlns="http://www.w3.org/2000/svg" role="img" aria-label="Football Future logo">
  <defs>
    <linearGradient id="limeCyan" x1="72" y1="30" x2="350" y2="180" gradientUnits="userSpaceOnUse">
      <stop offset="0" stop-color="#C6FF00"/>
      <stop offset="0.55" stop-color="#00E5FF"/>
      <stop offset="1" stop-color="#00BFAE"/>
    </linearGradient>
    <filter id="glow" x="-30%" y="-30%" width="160%" height="160%">
      <feGaussianBlur stdDeviation="5" result="coloredBlur"/>
      <feMerge>
        <feMergeNode in="coloredBlur"/>
        <feMergeNode in="SourceGraphic"/>
      </feMerge>
    </filter>
  </defs>
  <rect width="420" height="220" rx="32" fill="#0B0F14"/>
  <path opacity="0.24" d="M36 184L180 28M-2 154L118 32M270 204L388 56" stroke="url(#limeCyan)" stroke-width="4"/>
  <path d="M60 142L165 38H348L307 78H188L154 112H275L238 150H116L83 183H24L60 142Z" fill="url(#limeCyan)" filter="url(#glow)"/>
  <path d="M89 137L177 50H323L291 81H194L161 113H259L232 142H126L98 170H50L89 137Z" fill="#F6F9FC"/>
  <path d="M167 110H260L225 146H129L167 110Z" fill="#C6FF00"/>
  <path d="M113 152H226L198 180H83L113 152Z" fill="#00E5FF"/>
  <circle cx="334" cy="57" r="26" fill="#F6F9FC" stroke="#00E5FF" stroke-width="3"/>
  <path d="M334 32L343 49L362 51L348 64L352 83L334 74L316 83L320 64L306 51L325 49L334 32Z" fill="#111720"/>
  <path d="M312 52L328 57M356 52L341 57M321 78L330 66M347 77L338 66" stroke="#111720" stroke-width="3" stroke-linecap="round"/>
  <text x="210" y="198" text-anchor="middle" fill="#FFFFFF" font-size="22" font-family="Arial, sans-serif" font-weight="800">FOOTBALL FUTURE</text>
</svg>
